<svg width="94" height="100" viewBox="0 0 94 100" fill="none" xmlns="http://www.w3.org/2000/svg">
<path d="M93.0408 22.0647L47.6369 0.145605C47.2343 -0.0485352 46.7656 -0.0485352 46.3633 0.145605L0.959155 22.0647C0.452905 22.3091 0.131226 22.8218 0.131226 23.3839V76.6161C0.131226 77.1782 0.452905 77.6909 0.959155 77.9353L46.3631 99.8544C46.5642 99.9515 46.7822 100 47 100C47.2178 100 47.4355 99.9515 47.6369 99.8544L93.0408 77.9353C93.547 77.6909 93.8687 77.1782 93.8687 76.6161V23.3841C93.8687 22.8216 93.5469 22.3093 93.0408 22.0647ZM47 3.0915L89.0345 23.3839L76.8496 29.2663C76.7724 29.2075 76.691 29.1532 76.6015 29.1101L34.8525 8.95576L47 3.0915ZM31.5443 10.612L73.5177 30.8749L64.9211 35.0251L22.965 14.7704L31.5443 10.612ZM74.4998 33.6538V48.9948L66.4699 52.8714V37.5304L74.4998 33.6538ZM90.939 75.697L48.4648 96.2013V46.2224L58.5963 41.3313C59.3248 40.9796 59.6302 40.104 59.2785 39.3753C58.9267 38.647 58.0511 38.3411 57.3224 38.6931L47 43.6765L42.9383 41.7155C42.2095 41.3634 41.334 41.6692 40.9822 42.3978C40.6304 43.1263 40.9359 44.0021 41.6644 44.3538L45.5351 46.2224V96.2013L3.06091 75.6966V25.7177L35.4047 41.3319C35.6099 41.4312 35.8269 41.478 36.0404 41.478C36.5849 41.478 37.108 41.173 37.3605 40.6497C37.7123 39.9212 37.4068 39.0454 36.6783 38.6937L4.96541 23.3839L19.5172 16.3589L63.5199 37.6017C63.5263 37.6106 63.5336 37.6187 63.5402 37.6274V55.2054C63.5402 55.7095 63.7994 56.178 64.2263 56.4462C64.4634 56.595 64.734 56.6702 65.0052 56.6702C65.2224 56.6702 65.4402 56.622 65.642 56.5245L76.6015 51.2337C77.1078 50.9894 77.4295 50.4769 77.4295 49.9146V32.2397L90.939 25.7179V75.697Z" fill="url(#paint0_linear_9_297)"/>
<path d="M15.1496 70.0156L8.4865 66.799C7.75759 66.4469 6.8822 66.7528 6.53044 67.4813C6.17868 68.2098 6.48415 69.0856 7.21267 69.4373L13.8758 72.6539C14.081 72.7531 14.298 72.8 14.5115 72.8C15.056 72.8 15.5791 72.4949 15.8316 71.9717C16.1836 71.243 15.8781 70.3676 15.1496 70.0156Z" fill="url(#paint1_linear_9_297)"/>
<path d="M21.2818 66.0238L8.49571 59.8511C7.767 59.4994 6.89142 59.8048 6.53966 60.5335C6.1881 61.2621 6.49356 62.1378 7.22208 62.4896L20.0082 68.6623C20.2135 68.7613 20.4305 68.8083 20.644 68.8083C21.1885 68.8083 21.7115 68.5033 21.9641 67.98C22.3158 67.2511 22.0104 66.3753 21.2818 66.0238Z" fill="url(#paint2_linear_9_297)"/>
<defs>
<linearGradient id="paint0_linear_9_297" x1="9.13087" y1="-6.33976" x2="83.4071" y2="95.1166" gradientUnits="userSpaceOnUse">
<stop stop-color="#00833D"/>
<stop offset="1" stop-color="#73BF45"/>
</linearGradient>
<linearGradient id="paint1_linear_9_297" x1="7.30545" y1="66.2631" x2="10.8353" y2="74.2903" gradientUnits="userSpaceOnUse">
<stop stop-color="#00833D"/>
<stop offset="1" stop-color="#73BF45"/>
</linearGradient>
<linearGradient id="paint2_linear_9_297" x1="7.90265" y1="59.128" x2="12.7721" y2="71.3784" gradientUnits="userSpaceOnUse">
<stop stop-color="#00833D"/>
<stop offset="1" stop-color="#73BF45"/>
</linearGradient>
</defs>
</svg>
