<svg width="101" height="100" viewBox="0 0 101 100" fill="none" xmlns="http://www.w3.org/2000/svg">
<path d="M82.398 47.64C81.5173 47.2471 80.9484 46.385 80.9484 45.444V29.8186C80.9484 29.0079 80.2912 28.3507 79.4806 28.3507C78.6699 28.3507 78.0127 29.0079 78.0127 29.8186V45.444C78.0127 47.542 79.2645 49.4562 81.2009 50.3205C85.1074 52.0664 88.4583 54.6736 91.0744 57.8565C88.4374 57.895 86.0374 59.1264 84.4868 61.1745C83.2697 60.5248 81.9007 60.177 80.5077 60.177C79.3183 60.177 78.1603 60.4236 77.0915 60.8988C75.5355 58.6495 72.9548 57.2619 70.1544 57.2619C67.2726 57.2619 64.6621 58.6986 63.1212 61.0318C61.9775 60.4692 60.7209 60.177 59.4153 60.177C58.6481 60.177 57.8978 60.2803 57.1719 60.4809L52.7743 54.3255C54.7006 52.7058 56.8298 51.3648 59.1219 50.335C61.0485 49.4688 62.2934 47.5575 62.2934 45.4657V13.2733H78.0127V22.9766C78.0127 23.7872 78.6699 24.4444 79.4806 24.4444C80.2912 24.4444 80.9484 23.7872 80.9484 22.9766V13.2723H81.0664C83.9024 13.2723 86.2096 10.9651 86.2096 8.12908C86.2096 5.29306 83.9024 2.98584 81.0664 2.98584H59.2411C56.4051 2.98584 54.0979 5.29306 54.0979 8.12908C54.0979 10.9651 56.4051 13.2723 59.2411 13.2723H59.3579V45.4655C59.3579 46.4037 58.7929 47.2643 57.9187 47.6573C55.468 48.7583 53.1876 50.1827 51.1133 51.8926C50.634 50.982 50.3808 49.9719 50.3808 48.9257V34.387C53.3393 34.2807 55.7138 31.8422 55.7138 28.8582C55.7138 25.8067 53.2313 23.3243 50.18 23.3243H24.8168C21.7653 23.3243 19.2829 25.8069 19.2829 28.8582C19.2829 31.8428 21.6583 34.2815 24.6174 34.387V48.9257C24.6174 50.2649 24.2058 51.5488 23.4269 52.6383L6.64091 76.1351C6.16964 76.7949 6.32249 77.7116 6.98203 78.1828C7.64177 78.6539 8.55847 78.5012 9.02954 77.8417L13.3882 71.7405C21.3391 63.9019 33.6752 69.2536 44.5639 73.9784C50.3471 76.488 55.5125 78.7294 59.5327 78.7292C60.6477 78.7292 61.6749 78.5568 62.6024 78.1699C63.5277 77.784 64.3149 77.2015 64.9584 76.4301L70.5459 84.2512C72.345 86.7702 72.5734 89.9172 71.1571 92.6694C69.7407 95.4215 67.0476 97.0645 63.953 97.0645H11.0452C7.95021 97.0645 5.25686 95.4217 3.8407 92.67C2.42416 89.9177 2.65295 86.7704 4.4523 84.2512L5.04921 83.4155C5.52048 82.7558 5.36763 81.8391 4.70789 81.368C4.04816 80.8967 3.13145 81.0496 2.66038 81.7093L2.06347 82.545C-0.350996 85.9255 -0.670198 90.3199 1.23053 94.0134C3.13087 97.706 6.89162 100 11.0452 100H76.0578C76.8684 100 77.5256 99.3429 77.5256 98.5323C77.5256 97.7216 76.8684 97.0645 76.0578 97.0645H71.4561C72.381 96.2053 73.1672 95.179 73.7674 94.0128C75.6682 90.3193 75.3492 85.9251 72.9349 82.5448L59.0612 63.1251C59.1789 63.1177 59.2969 63.1126 59.4157 63.1126C60.6473 63.1126 61.8117 63.5117 62.7832 64.2665C63.1471 64.5491 63.6226 64.6446 64.0675 64.5243C64.5121 64.4039 64.8748 64.0816 65.0462 63.6538C65.8884 61.5542 67.8936 60.1975 70.155 60.1975C72.3348 60.1975 74.3107 61.4874 75.1889 63.4835C75.3656 63.8853 75.713 64.1869 76.1353 64.3055C76.5579 64.4241 77.0113 64.3475 77.3714 64.0967C78.2955 63.4528 79.3802 63.1124 80.508 63.1124C81.7809 63.1124 83.0227 63.5575 84.0048 64.3658C84.27 64.584 84.6003 64.7002 84.9375 64.7002C85.0413 64.7002 85.1456 64.6893 85.2489 64.6668C85.6879 64.5714 86.0589 64.2804 86.2562 63.8769C87.1876 61.9716 89.0825 60.788 91.2016 60.788C91.9885 60.788 92.7661 60.9581 93.4742 61.2802C95.9004 65.3807 97.2574 70.1253 97.2574 75.0779C97.2574 82.9521 93.8394 90.4256 87.8794 95.5822C86.7754 96.5376 85.3714 97.0639 83.9257 97.0639H82.9041C82.0935 97.0639 81.4363 97.7211 81.4363 98.5317C81.4363 99.3423 82.0935 99.9995 82.9041 99.9995H83.9257C86.0768 99.9995 88.1632 99.219 89.8005 97.8021C96.4053 92.0876 100.193 83.805 100.193 75.0779C100.193 63.2414 93.2082 52.4715 82.398 47.64ZM57.0335 8.12908C57.0335 6.91177 58.0238 5.92148 59.2411 5.92148H81.0666C82.2839 5.92148 83.2742 6.91177 83.2742 8.12908C83.2742 9.34639 82.2839 10.3367 81.0666 10.3367H59.2411C58.0238 10.3367 57.0335 9.34639 57.0335 8.12908ZM22.2186 28.8582C22.2186 27.4254 23.3842 26.26 24.8168 26.26H50.1798C51.6124 26.26 52.778 27.4256 52.778 28.8582C52.778 30.2908 51.6124 31.4565 50.1798 31.4565H24.8168C23.3842 31.4565 22.2186 30.291 22.2186 28.8582ZM61.4722 75.4605C58.353 76.7616 52.223 74.1015 45.7327 71.2852C36.8911 67.4486 26.3426 62.8735 17.6871 65.7234L25.8157 54.345C26.9524 52.7547 27.5532 50.8806 27.5532 48.9257V34.453H47.4451V48.9257C47.4451 50.8826 48.0454 52.7565 49.1807 54.3448L63.1465 73.8933C62.7275 74.6548 62.1856 75.1628 61.4722 75.4605Z" fill="url(#paint0_linear_9_234)"/>
<path d="M40.4385 79.6142C40.4385 75.5209 37.1084 72.1909 33.0153 72.1909C28.9222 72.1909 25.592 75.5209 25.592 79.6142C25.592 83.7074 28.9222 87.0374 33.0153 87.0374C37.1084 87.0374 40.4385 83.7074 40.4385 79.6142ZM28.5275 79.6142C28.5275 77.1396 30.5407 75.1266 33.0151 75.1266C35.4895 75.1266 37.5027 77.1396 37.5027 79.6142C37.5027 82.0887 35.4895 84.1018 33.0151 84.1018C30.5407 84.1018 28.5275 82.0887 28.5275 79.6142Z" fill="url(#paint1_linear_9_234)"/>
<path d="M54.7263 88.2666C54.7263 85.1028 52.1523 82.5288 48.9885 82.5288C45.8246 82.5288 43.2507 85.1028 43.2507 88.2666C43.2507 91.4304 45.8246 94.0044 48.9885 94.0044C52.1523 94.0044 54.7263 91.4304 54.7263 88.2666ZM46.1863 88.2666C46.1863 86.7215 47.4434 85.4644 48.9885 85.4644C50.5336 85.4644 51.7906 86.7215 51.7906 88.2666C51.7906 89.8117 50.5336 91.0688 48.9885 91.0688C47.4434 91.0688 46.1863 89.8117 46.1863 88.2666Z" fill="url(#paint2_linear_9_234)"/>
<path d="M32.8327 19.4646C36.3623 19.4646 39.2339 16.593 39.2339 13.0634C39.2339 9.53375 36.3623 6.66211 32.8327 6.66211C29.303 6.66211 26.4314 9.53375 26.4314 13.0634C26.4314 16.593 29.303 19.4646 32.8327 19.4646ZM32.8327 9.59794C34.7436 9.59794 36.2983 11.1527 36.2983 13.0636C36.2983 14.9745 34.7436 16.5292 32.8327 16.5292C30.9218 16.5292 29.367 14.9745 29.367 13.0636C29.367 11.1527 30.9218 9.59794 32.8327 9.59794Z" fill="url(#paint3_linear_9_234)"/>
<path d="M25.5048 90.024C25.5048 87.3782 23.3522 85.2256 20.7062 85.2256C18.0602 85.2256 15.9078 87.3782 15.9078 90.024C15.9078 92.67 18.0604 94.8224 20.7062 94.8224C23.352 94.8224 25.5048 92.6698 25.5048 90.024ZM18.8434 90.024C18.8434 88.9969 19.6791 88.1612 20.7062 88.1612C21.7335 88.1612 22.5691 88.9969 22.5691 90.024C22.5691 91.0511 21.7335 91.8867 20.7062 91.8867C19.6791 91.8867 18.8434 91.0511 18.8434 90.024Z" fill="url(#paint4_linear_9_234)"/>
<path d="M44.7185 9.5968C47.3645 9.5968 49.5171 7.44419 49.5171 4.7984C49.5171 2.15241 47.3645 0 44.7185 0C42.0725 0 39.9201 2.15261 39.9201 4.7984C39.9201 7.44419 42.0727 9.5968 44.7185 9.5968ZM44.7185 2.93544C45.7458 2.93544 46.5815 3.77112 46.5815 4.7982C46.5815 5.82529 45.7458 6.66096 44.7185 6.66096C43.6914 6.66096 42.8557 5.82529 42.8557 4.7982C42.8557 3.77112 43.6914 2.93544 44.7185 2.93544Z" fill="url(#paint5_linear_9_234)"/>
<defs>
<linearGradient id="paint0_linear_9_234" x1="9.61946" y1="-3.16462" x2="79.3068" y2="101.711" gradientUnits="userSpaceOnUse">
<stop stop-color="#00833D"/>
<stop offset="1" stop-color="#73BF45"/>
</linearGradient>
<linearGradient id="paint1_linear_9_234" x1="27.0174" y1="71.2497" x2="37.8112" y2="86.9783" gradientUnits="userSpaceOnUse">
<stop stop-color="#00833D"/>
<stop offset="1" stop-color="#73BF45"/>
</linearGradient>
<linearGradient id="paint2_linear_9_234" x1="44.3524" y1="81.8013" x2="52.6955" y2="93.9587" gradientUnits="userSpaceOnUse">
<stop stop-color="#00833D"/>
<stop offset="1" stop-color="#73BF45"/>
</linearGradient>
<linearGradient id="paint3_linear_9_234" x1="27.6606" y1="5.85046" x2="36.9683" y2="19.4136" gradientUnits="userSpaceOnUse">
<stop stop-color="#00833D"/>
<stop offset="1" stop-color="#73BF45"/>
</linearGradient>
<linearGradient id="paint4_linear_9_234" x1="16.8292" y1="84.6172" x2="23.8062" y2="94.7843" gradientUnits="userSpaceOnUse">
<stop stop-color="#00833D"/>
<stop offset="1" stop-color="#73BF45"/>
</linearGradient>
<linearGradient id="paint5_linear_9_234" x1="40.8415" y1="-0.608413" x2="47.8186" y2="9.55872" gradientUnits="userSpaceOnUse">
<stop stop-color="#00833D"/>
<stop offset="1" stop-color="#73BF45"/>
</linearGradient>
</defs>
</svg>
