<svg width="109" height="100" viewBox="0 0 109 100" fill="none" xmlns="http://www.w3.org/2000/svg">
<path d="M80.2074 71.2778C77.2588 74.2264 77.2588 79.0245 80.2074 81.973C83.156 84.9216 87.954 84.9216 90.9026 81.973C93.8512 79.0245 93.8512 74.2264 90.9026 71.2778C87.954 68.3293 83.1562 68.3291 80.2074 71.2778ZM88.6459 79.7164C86.9415 81.4207 84.1682 81.4207 82.4639 79.7164C80.7595 78.012 80.7595 75.2387 82.4639 73.5343C84.1682 71.8299 86.9415 71.8299 88.6459 73.5343C90.3503 75.2387 90.3503 78.012 88.6459 79.7164ZM26.3906 80.4857C30.5606 80.4857 33.9532 77.0931 33.9532 72.9231C33.9532 68.7531 30.5606 65.3605 26.3906 65.3605C22.2206 65.3605 18.828 68.7531 18.828 72.9231C18.8282 77.0931 22.2206 80.4857 26.3906 80.4857ZM26.3906 68.5516C28.8009 68.5516 30.7618 70.5126 30.7618 72.9229C30.7618 75.3332 28.8009 77.2941 26.3906 77.2941C23.9803 77.2941 22.0193 75.3332 22.0193 72.9229C22.0193 70.5126 23.9803 68.5516 26.3906 68.5516ZM58.0224 24.3064C49.4385 24.3064 42.4551 31.2899 42.4551 39.8737C42.4551 48.4575 49.4385 55.441 58.0224 55.441C66.6062 55.441 73.5896 48.4575 73.5896 39.8737C73.5896 31.2899 66.6062 24.3064 58.0224 24.3064ZM58.0224 52.2497C51.1982 52.2497 45.6464 46.6978 45.6464 39.8737C45.6464 33.0496 51.1982 27.4977 58.0224 27.4977C64.8465 27.4977 70.3983 33.0496 70.3983 39.8737C70.3983 46.6978 64.8465 52.2497 58.0224 52.2497ZM58.0224 31.6324C53.4781 31.6324 49.7811 35.3295 49.7811 39.8737C49.7811 44.4179 53.4781 48.115 58.0224 48.115C62.5666 48.115 66.2636 44.4179 66.2636 39.8737C66.2636 35.3295 62.5666 31.6324 58.0224 31.6324ZM58.0224 44.9237C55.2378 44.9237 52.9724 42.6582 52.9724 39.8737C52.9724 37.0892 55.2378 34.8237 58.0224 34.8237C60.8069 34.8237 63.0723 37.0892 63.0723 39.8737C63.0723 42.6582 60.8069 44.9237 58.0224 44.9237ZM108.264 86.0582L106.294 82.669C106.14 82.4047 106.059 82.1037 106.059 81.7984V71.4525C106.059 71.147 106.14 70.846 106.294 70.5819L108.264 67.1925C109.385 65.2635 109.066 62.8144 107.489 61.2369L100.944 54.6919C99.3662 53.1143 96.9172 52.7956 94.9879 53.9166L91.5985 55.8867C91.3345 56.0401 91.0334 56.1214 90.7281 56.1214H85.4622C85.3973 55.6223 85.4424 55.111 85.6001 54.6259L89.0042 44.1488C89.2544 43.3788 89.772 42.721 90.4615 42.2966L94.5981 39.7503C97.2038 38.1463 98.363 34.994 97.4176 32.0841L97.001 30.802C96.7287 29.964 95.8281 29.5047 94.9905 29.7776C94.1522 30.05 93.6935 30.9501 93.9658 31.7882L94.3824 33.0704C94.8711 34.5742 94.2718 36.2037 92.925 37.0328L88.7884 39.579C87.4542 40.4003 86.453 41.673 85.969 43.1629L82.5649 53.64C82.3032 54.4455 82.2073 55.2882 82.2632 56.1216H80.3821C80.0765 56.1216 79.7755 56.0405 79.5115 55.8869L76.1221 53.9168C74.1934 52.7958 71.7442 53.1145 70.1664 54.6921L63.6214 61.2371C62.0438 62.8147 61.7251 65.2637 62.8461 67.1927L63.0068 67.4691H52.7118C52.3924 65.5941 51.0042 64.035 49.1185 63.5357L45.3287 62.5319C45.0337 62.4538 44.7635 62.2983 44.5475 62.0824L37.2319 54.7668C37.0158 54.5506 36.8602 54.2804 36.7822 53.9853L35.7786 50.1957C35.2207 48.0888 33.3396 46.607 31.1731 46.5391L30.0761 43.1631C29.5921 41.6732 28.5907 40.4005 27.2567 39.5793L23.1203 37.033C21.7738 36.2039 21.1744 34.5746 21.6629 33.0704L24.6079 24.0069C25.0966 22.5029 26.5384 21.5368 28.116 21.6576L32.9592 22.0291C34.521 22.1493 36.0792 21.7078 37.3466 20.7868L46.2589 14.3116C47.5263 13.3908 48.4273 12.0453 48.7962 10.5227L49.9396 5.80183C50.3119 4.26489 51.6763 3.19133 53.2577 3.19133H62.7876C64.369 3.19133 65.7334 4.26468 66.1058 5.80183L67.2493 10.5227C67.618 12.0451 68.519 13.3908 69.7864 14.3116L78.6987 20.787C79.9663 21.7078 81.5243 22.1487 83.0862 22.0291L87.9293 21.6576C89.5065 21.5349 90.9485 22.5027 91.4372 24.0069L91.6472 24.6532C91.9196 25.4913 92.8201 25.9495 93.658 25.6776C94.4962 25.4053 94.9547 24.5051 94.6824 23.6669L94.4724 23.0205C93.5271 20.1107 90.7373 18.2414 87.6855 18.4757L82.8424 18.8471C82.0352 18.9084 81.2297 18.681 80.5744 18.205L71.6621 11.7298C71.007 11.2541 70.5413 10.5586 70.3507 9.77142L69.2071 5.05038C68.4869 2.0767 65.8471 0 62.7874 0H53.2575C50.1979 0 47.558 2.07692 46.8378 5.05038L45.6945 9.7712C45.5038 10.5582 45.0381 11.2539 44.383 11.7296L35.4707 18.2048C34.8155 18.6807 34.0108 18.9088 33.203 18.8469L28.3598 18.4754C25.3089 18.2416 22.5182 20.1105 21.5727 23.0203L18.6278 32.0839C17.6823 34.9937 18.8416 38.1461 21.4472 39.7501L25.5836 42.2964C26.2731 42.7208 26.7905 43.3786 27.041 44.1488L27.8154 46.5323H21.7627C19.5316 46.5323 17.5742 48.0386 17.0032 50.1955L15.9996 53.9851C15.9213 54.2804 15.7658 54.5506 15.5501 54.7666L8.23426 62.0824C8.01831 62.2983 7.74811 62.4538 7.45281 62.5319L3.663 63.5355C1.50631 64.1067 0 66.0639 0 68.295V68.6499C0 69.5311 0.714431 70.2456 1.59566 70.2456C2.47689 70.2456 3.19133 69.5311 3.19133 68.6499V68.295C3.19133 67.51 3.7213 66.8215 4.4802 66.6204L8.26979 65.6169C9.1089 65.3947 9.87694 64.9529 10.491 64.3388L17.807 57.023C18.4208 56.409 18.8624 55.6412 19.0848 54.8021L20.0883 51.0125C20.2892 50.2536 20.9779 49.7236 21.7629 49.7236H31.0188C31.8037 49.7236 32.4924 50.2536 32.6934 51.0125L33.697 54.8023C33.9191 55.6412 34.3612 56.4092 34.975 57.0233L42.2908 64.3391C42.9048 64.9531 43.6729 65.395 44.5118 65.6171L48.3014 66.6206C49.06 66.8217 49.5902 67.5102 49.5902 68.2952V77.5511C49.5902 78.3362 49.0603 79.0247 48.3014 79.2257L44.5116 80.2293C43.6724 80.4516 42.9044 80.8935 42.2906 81.5073L34.9748 88.8231C34.361 89.4369 33.9191 90.205 33.697 91.0443L32.6934 94.8339C32.4926 95.5926 31.8039 96.1225 31.0188 96.1225H21.7627C20.9776 96.1225 20.2892 95.5926 20.0881 94.8337L19.0846 91.0441C18.8624 90.205 18.4205 89.4369 17.8065 88.8231L10.491 81.5071C9.87715 80.8933 9.10911 80.4514 8.27 80.2291L4.48041 79.2255C3.7213 79.0245 3.19133 78.336 3.19133 77.5509V76.1321C3.19133 75.2508 2.47689 74.5364 1.59566 74.5364C0.714431 74.5364 0 75.2508 0 76.1321V77.5509C0 79.7821 1.50631 81.7394 3.66322 82.3105L7.45281 83.314C7.74811 83.3923 8.01831 83.5479 8.23426 83.7638L15.5498 91.0794C15.766 91.2955 15.9215 91.5658 15.9996 91.8611L17.0032 95.6504C17.5742 97.8073 19.5313 99.3137 21.7627 99.3137H31.0186C33.2498 99.3137 35.2069 97.8073 35.7782 95.6504L36.7817 91.8608C36.86 91.5655 37.0156 91.2951 37.2313 91.0792L44.5471 83.7636C44.763 83.5476 45.0334 83.3921 45.3285 83.3138L49.1181 82.3103C51.275 81.739 52.7813 79.7819 52.7813 77.5507V70.66H63.5304C64.0348 70.66 64.531 70.7749 64.988 70.9928C65.0856 71.3474 65.0507 70.9934 65.0507 81.7982C65.0507 82.1037 64.9697 82.4047 64.816 82.6688L62.8459 86.0582C61.7247 87.987 62.0436 90.4362 63.6212 92.0138L70.1662 98.5588C71.744 100.137 74.1932 100.455 76.1218 99.3343L79.511 97.3642C79.7753 97.2106 80.0763 97.1295 80.3816 97.1295H90.7275C91.033 97.1295 91.3338 97.2106 91.5979 97.3642L94.9875 99.3343C95.7579 99.7819 96.6108 100 97.4584 100C98.7332 100 99.9953 99.5064 100.943 98.5588L107.488 92.014C109.066 90.4364 109.385 87.9872 108.264 86.0582ZM105.232 89.7573L98.6869 96.3023C98.1318 96.8574 97.2699 96.9693 96.5914 96.5751L93.202 94.6052C92.4517 94.1688 91.5959 93.9382 90.7279 93.9382H80.3821C79.514 93.9382 78.6583 94.1688 77.9077 94.605L74.5185 96.5751C73.8398 96.9691 72.9782 96.8572 72.4231 96.3023L65.8781 89.7573C65.323 89.2023 65.2109 88.3406 65.6054 87.6619L67.5755 84.2725C68.0116 83.5219 68.2423 82.6664 68.2423 81.7984V71.4525C68.2423 70.5845 68.0116 69.7288 67.5755 68.9782L65.6054 65.5888C65.2109 64.9101 65.323 64.0484 65.8781 63.4934L72.4231 56.9484C72.978 56.3933 73.8396 56.2812 74.5185 56.6756L77.9079 58.6457C78.6585 59.0819 79.514 59.3125 80.3821 59.3125H90.7279C91.5959 59.3125 92.4517 59.0819 93.202 58.6457L96.5914 56.6756C97.2699 56.281 98.1316 56.3931 98.6869 56.9484L105.232 63.4936C105.787 64.0484 105.899 64.9101 105.505 65.5888L103.535 68.9782C103.099 69.7288 102.868 70.5843 102.868 71.4523V81.7982C102.868 82.6662 103.099 83.5219 103.535 84.2725L105.505 87.6619C105.899 88.3406 105.787 89.2023 105.232 89.7573Z" fill="url(#paint0_linear_9_306)"/>
<defs>
<linearGradient id="paint0_linear_9_306" x1="10.4582" y1="-6.33975" x2="80.7389" y2="105.218" gradientUnits="userSpaceOnUse">
<stop stop-color="#00833D"/>
<stop offset="1" stop-color="#73BF45"/>
</linearGradient>
</defs>
</svg>
