<svg width="95" height="100" viewBox="0 0 95 100" fill="none" xmlns="http://www.w3.org/2000/svg">
<path d="M1.98937 36.1862L7.11011 39.1429C7.51578 39.3771 7.71246 39.8443 7.59976 40.3056C6.8273 43.465 6.4355 46.7267 6.4355 50C6.4355 53.2733 6.8273 56.5348 7.59976 59.6944C7.71246 60.1556 7.51578 60.6227 7.11011 60.8571L1.98937 63.8136C0.0909155 64.9097 -0.561824 67.3458 0.534279 69.2443L7.18023 80.7557C7.71129 81.6753 8.56833 82.3333 9.59412 82.6081C10.6197 82.8829 11.6912 82.7419 12.6107 82.2108L17.7383 79.2504C18.1444 79.0159 18.6471 79.0795 18.9897 79.4077C23.7169 83.9368 29.522 87.2911 35.7773 89.1083C36.2242 89.2382 36.5365 89.6511 36.5365 90.1126V96.0246C36.5365 98.2168 38.3201 100 40.5121 100H53.8044C55.9966 100 57.7799 98.2168 57.7799 96.0246V90.1126C57.7799 89.6513 58.0922 89.2382 58.539 89.1083C64.7944 87.2913 70.5995 83.9368 75.3267 79.4079C75.6692 79.0797 76.1724 79.0163 76.578 79.2506L81.7056 82.211C83.6037 83.3069 86.0402 82.6546 87.1363 80.7559L93.7825 69.2445C94.8786 67.346 94.2258 64.9099 92.3274 63.8138L87.2064 60.8573C86.801 60.6231 86.6041 60.1559 86.7168 59.6946C87.4893 56.5352 87.8811 53.2735 87.8811 50.0002C87.8811 46.7269 87.4893 43.4654 86.717 40.306C86.6041 39.8447 86.801 39.3773 87.2064 39.1431L92.3274 36.1864C94.2258 35.0903 94.8786 32.6542 93.7825 30.7557L87.1365 19.2443C86.0406 17.3458 83.6045 16.6925 81.7058 17.7892L76.578 20.7496C76.1726 20.984 75.6696 20.9205 75.3269 20.5924C70.5995 16.0634 64.7944 12.7089 58.5394 10.8919C58.0923 10.762 57.78 10.3491 57.78 9.88758V3.97562C57.7802 1.78341 55.9968 0 53.8046 0H40.5123C38.3201 0 36.5367 1.78341 36.5367 3.97562V9.88758C36.5367 10.3489 36.2244 10.762 35.7775 10.8919C29.5224 12.7089 23.7173 16.0634 18.9899 20.5924C18.6471 20.9205 18.144 20.9836 17.7385 20.7496L12.6109 17.7892C10.7133 16.6937 8.27653 17.3458 7.18023 19.2443L0.534279 30.7557C0.0032197 31.6753 -0.137602 32.7467 0.137205 33.7723C0.411817 34.7981 1.06963 35.6554 1.98937 36.1862ZM3.07141 32.2206L9.71736 20.7091C10.006 20.2099 10.6467 20.038 11.1459 20.3263L16.2735 23.2865C17.7944 24.1646 19.7446 23.9264 21.0165 22.7076C25.4042 18.5041 30.791 15.3909 36.5947 13.705C38.2854 13.2138 39.4662 11.6438 39.4662 9.88738V3.97562C39.4662 3.39885 39.9354 2.92971 40.5121 2.92971H53.8044C54.381 2.92971 54.8501 3.39885 54.8501 3.97562V9.88758C54.8501 11.644 56.031 13.214 57.7218 13.7052C63.5254 15.3911 68.9122 18.5041 73.2999 22.7078C74.5718 23.9266 76.5224 24.1648 78.0429 23.2867L83.1705 20.3265C83.6705 20.0382 84.3111 20.2101 84.599 20.7093L91.2452 32.2208C91.5336 32.7202 91.3617 33.361 90.8623 33.6493L85.742 36.6058C84.2226 37.4829 83.4533 39.2905 83.8715 41.0015C84.5883 43.9336 84.9517 46.9609 84.9517 50C84.9517 53.0391 84.5883 56.0667 83.8713 58.9987C83.4533 60.7097 84.2226 62.5171 85.7422 63.3942L90.8629 66.3507C91.1047 66.4904 91.278 66.716 91.3502 66.9857C91.4225 67.2556 91.3854 67.5375 91.2457 67.7793L84.5994 79.2909C84.3111 79.7903 83.6707 79.9622 83.1709 79.6737L78.0433 76.7133C76.5234 75.8356 74.5724 76.0735 73.3003 77.2922C68.9126 81.4958 63.5258 84.6089 57.7222 86.2948C56.0314 86.786 54.8505 88.3558 54.8505 90.1124V96.0244C54.8505 96.6012 54.3814 97.0703 53.8048 97.0703H40.5125C39.9358 97.0703 39.4666 96.6012 39.4666 96.0244V90.1124C39.4666 88.3558 38.2857 86.786 36.5949 86.2948C30.7914 84.6089 25.4046 81.4958 21.0169 77.292C20.2575 76.5647 19.2567 76.1867 18.25 76.1867C17.57 76.1867 16.8869 76.3592 16.2739 76.7133L11.1463 79.6737C10.9041 79.8135 10.6221 79.8502 10.3529 79.7782C10.083 79.7057 9.8574 79.5329 9.71775 79.2909L3.07141 67.7794C2.78293 67.28 2.95481 66.6392 3.45422 66.3507L8.57497 63.3942C10.0947 62.5169 10.864 60.7093 10.4455 58.9985C9.72869 56.0665 9.36521 53.0391 9.36521 50C9.36521 46.9609 9.72869 43.9334 10.4455 41.0015C10.8639 39.2907 10.0945 37.4831 8.57497 36.6058L3.45422 33.6491C3.21242 33.5094 3.03918 33.2839 2.96691 33.0141C2.89465 32.7444 2.93176 32.4626 3.07141 32.2206Z" fill="url(#paint0_linear_9_249)"/>
<path d="M47.1585 78.2981C61.3414 78.2981 73.4362 67.7058 75.2292 53.603C75.3312 52.8004 74.7632 52.067 73.9608 51.9651C73.1583 51.8627 72.4249 52.4309 72.3227 53.2334C71.5098 59.6271 68.3309 65.2228 63.7356 69.1892C63.7356 67.8111 63.7356 58.5827 63.7356 57.4015C63.7356 52.9422 60.1076 49.3143 55.6484 49.3143H54.8794V45.3019H55.0402C57.0398 45.3019 58.6668 43.675 58.6668 41.6754V35.0304C58.6668 33.0306 57.0398 31.4038 55.0402 31.4038H39.2768C37.2772 31.4038 35.6504 33.0308 35.6504 35.0304V41.6754C35.6504 43.675 37.2772 45.3019 39.2768 45.3019H39.4375V49.3143H38.6684C34.2092 49.3143 30.5814 52.9422 30.5814 57.4015V69.1877C25.2003 64.5324 21.7901 57.6571 21.7901 50C21.7901 36.012 33.1703 24.6319 47.1583 24.6319C59.9 24.6319 70.7182 34.1478 72.3225 46.7668C72.4243 47.5693 73.1579 48.1381 73.9607 48.0352C74.763 47.9332 75.3312 47.1998 75.229 46.3973C73.4392 32.3186 61.3715 21.7021 47.1583 21.7021C31.5546 21.7021 18.8604 34.3966 18.8604 50C18.8606 65.5994 31.5537 78.2981 47.1585 78.2981ZM39.2768 42.3724C38.899 42.3724 38.5801 42.0533 38.5801 41.6755V35.0306C38.5801 34.6528 38.8992 34.3337 39.2768 34.3337H55.0402C55.4181 34.3337 55.7371 34.6528 55.7371 35.0306V41.6755C55.7371 42.0533 55.4179 42.3724 55.0402 42.3724H53.4146H40.9024H39.2768ZM51.9497 45.3021V49.3145H42.3672V45.3021H51.9497ZM33.5113 61.722H43.7405C44.5497 61.722 45.2053 61.0661 45.2053 60.2571C45.2053 59.4481 44.5497 58.7923 43.7405 58.7923H33.5113V57.4015C33.5113 54.5577 35.825 52.244 38.6686 52.244H40.9026H53.4148H55.6486C58.4926 52.244 60.806 54.5577 60.806 57.4015V58.7923H50.5767C49.7675 58.7923 49.1118 59.4481 49.1118 60.2571C49.1118 61.0661 49.7675 61.722 50.5767 61.722H60.806V71.3744C56.8 73.9363 52.0947 75.3682 47.1587 75.3682C42.4663 75.3682 37.7201 74.0725 33.5115 71.3762V61.722H33.5113Z" fill="url(#paint1_linear_9_249)"/>
<defs>
<linearGradient id="paint0_linear_9_249" x1="9.05503" y1="-6.33976" x2="83.1926" y2="95.5502" gradientUnits="userSpaceOnUse">
<stop stop-color="#00833D"/>
<stop offset="1" stop-color="#73BF45"/>
</linearGradient>
<linearGradient id="paint1_linear_9_249" x1="24.2735" y1="18.1141" x2="65.4764" y2="77.9262" gradientUnits="userSpaceOnUse">
<stop stop-color="#00833D"/>
<stop offset="1" stop-color="#73BF45"/>
</linearGradient>
</defs>
</svg>
