<svg width="126" height="100" viewBox="0 0 126 100" fill="none" xmlns="http://www.w3.org/2000/svg">
<path d="M30.584 29.9714L38.2543 16.686C43.1925 8.13278 54.169 5.19189 62.7224 10.1299C63.778 10.7392 64.1394 12.089 63.5301 13.1443C62.9208 14.1999 61.5712 14.5616 60.5156 13.952C54.0694 10.2307 45.798 12.4468 42.0766 18.8925L34.4064 32.178C33.9976 32.8858 33.2559 33.2816 32.4931 33.2816C32.1187 33.2816 31.7394 33.1862 31.3917 32.9856C30.3364 32.3766 29.9747 31.027 30.584 29.9714ZM125.549 74.3449C125.549 88.4868 114.043 99.9919 99.9015 99.9919H43.6437C40.5459 99.9919 37.5196 99.44 34.6391 98.3513C33.8662 98.6389 33.0755 98.8925 32.268 99.1087C30.0429 99.705 27.7863 100 25.5472 100C21.1106 100 16.7417 98.8417 12.8137 96.5739C6.90321 93.1615 2.66916 87.6284 0.891241 80.9934C-0.886433 74.3586 0.013683 67.4494 3.42608 61.5392L31.5553 12.8185C38.6265 0.57141 54.3428 -3.63984 66.5901 3.43089C72.5006 6.84329 76.7346 12.3766 78.5126 19.0114C80.2905 25.6462 79.3901 32.5553 75.9777 38.4655L70.0704 48.6973H99.9018C114.043 48.6976 125.549 60.2029 125.549 74.3449ZM22.4165 37.4744L59.1943 58.7082L72.1554 36.259C74.9783 31.3695 75.722 25.6501 74.2493 20.1538C72.7767 14.6575 69.2728 10.076 64.3834 7.25326C61.0482 5.32773 57.4019 4.41266 53.8024 4.41266C46.458 4.41266 39.3064 8.2208 35.3776 15.0252L22.4165 37.4744ZM44.0262 84.9795L56.9873 62.5303L20.2095 41.2968L7.24845 63.746C4.4255 68.6355 3.68182 74.3552 5.15447 79.8512C6.62712 85.3476 10.131 89.929 15.0204 92.7517C19.9099 95.5747 25.6296 96.3181 31.1257 94.8457C36.6217 93.3733 41.2035 89.869 44.0262 84.9795ZM43.6437 95.5784H69.5658V53.1111H67.5219L47.8485 87.1863C45.9598 90.4579 43.4201 93.2147 40.4044 95.3268C41.4705 95.4916 42.5513 95.5784 43.6437 95.5784ZM121.135 74.3449C121.135 62.6365 111.61 53.1111 99.9015 53.1111H73.9794V95.5784H99.9015C111.61 95.5784 121.135 86.0532 121.135 74.3449ZM99.9015 56.433H84.5611C83.3422 56.433 82.3543 57.4209 82.3543 58.6398C82.3543 59.8587 83.3422 60.8466 84.5611 60.8466H99.9015C107.344 60.8466 113.4 66.9019 113.4 74.3449C113.4 75.5637 114.388 76.5516 115.607 76.5516C116.825 76.5516 117.813 75.5637 117.813 74.3449C117.813 64.4684 109.778 56.433 99.9015 56.433Z" fill="url(#paint0_linear_9_239)"/>
<defs>
<linearGradient id="paint0_linear_9_239" x1="12.0538" y1="-6.33975" x2="77.6381" y2="113.646" gradientUnits="userSpaceOnUse">
<stop stop-color="#00833D"/>
<stop offset="1" stop-color="#73BF45"/>
</linearGradient>
</defs>
</svg>
