<svg width="101" height="100" viewBox="0 0 101 100" fill="none" xmlns="http://www.w3.org/2000/svg">
<path d="M48.6363 70.7576L44.0909 70.1514C43.6363 68.1818 42.8788 66.515 41.8182 64.8484L44.5454 61.212C45 60.6059 45 59.6969 44.3939 59.0908L40.7575 55.4544C40.1514 54.8483 39.3939 54.8483 38.7878 55.3028L35.1514 58.1816C33.4848 57.121 31.6665 56.515 29.8484 55.9089L29.2422 51.3635C29.0907 50.6059 28.4846 50 27.7272 50H22.4241C21.6665 50 21.0606 50.6061 20.9091 51.3635L20.303 55.9089C18.4849 56.3635 16.6665 57.121 14.9999 58.1816L11.3635 55.4544C10.7574 54.9998 9.84843 54.9998 9.39385 55.6059L5.60609 59.3939C4.99998 60 4.99998 60.7574 5.45456 61.3635L8.18184 64.9999C7.12115 66.6665 6.51525 68.4849 5.90914 70.303L1.36374 70.9091C0.606107 71.0606 0 71.6667 0 72.4243V77.7274C0 78.485 0.606107 79.0909 1.36354 79.2424L5.90894 79.8486C6.36352 81.8182 7.12095 83.485 8.18164 85.1516L5.45436 88.788C4.99978 89.3941 4.99978 90.3031 5.60589 90.7577L9.39365 94.3941C9.99976 95.0002 10.7572 95.0002 11.3633 94.5456L14.9997 91.8184C16.6663 92.8791 18.4847 93.485 20.3028 94.0911L20.9089 98.6365C21.0604 99.3941 21.6665 100 22.4239 100H27.727C28.4846 100 29.0905 99.3939 29.242 98.6365L29.8482 94.0911C31.6663 93.6365 33.4846 92.8788 35.1512 91.8184L38.7876 94.5456C39.0907 94.6972 39.3937 94.8487 39.6968 94.8487C40.1514 94.8487 40.6059 94.6972 40.9088 94.3941L44.5452 90.7577C45.1513 90.1516 45.1513 89.3941 44.6968 88.788L41.9695 85.1516C43.0302 83.485 43.6361 81.6667 44.2422 79.8486L48.7876 79.2424C49.5452 79.0909 50.1511 78.4848 50.1511 77.7274V72.4243C49.8485 71.5152 49.3939 70.9091 48.6363 70.7576ZM47.1212 76.2121H46.8181L42.5758 76.8182C41.9697 76.9697 41.3636 77.4243 41.2123 78.0302C40.7577 80.3029 40.0002 82.4241 38.6365 84.2424C38.3335 84.8485 38.3335 85.4544 38.6365 86.0605L41.2123 89.5455L39.3941 91.3636L35.9092 88.7878C35.4546 88.3332 34.6972 88.3332 34.0911 88.7878C32.273 90 30.1518 90.909 27.8789 91.3636C27.2728 91.5151 26.8182 91.9697 26.6669 92.7271L26.3638 96.8179H23.7881L23.182 92.5756C23.0305 91.9695 22.5759 91.3636 21.97 91.2121C19.6973 90.7575 17.5761 89.8485 15.7578 88.6363C15.1517 88.3333 14.5458 88.3333 13.9397 88.6363L10.4547 91.2121L8.63662 89.3939L11.2124 86.0605C11.667 85.606 11.667 84.697 11.2124 84.2424C10.0002 82.4243 9.0912 80.3031 8.63662 78.0302C8.4851 77.4241 8.03051 76.9695 7.42461 76.818L3.33379 76.2119V73.6362L7.57614 73.0301C8.18224 72.8785 8.78815 72.4239 8.78815 71.8178C9.24273 69.5451 10.0004 67.424 11.3639 65.6056C11.667 64.9995 11.667 64.3934 11.3639 63.7875L8.78815 60.4541L10.6063 58.636L13.9397 61.2118C14.3942 61.6663 15.3032 61.6663 15.7578 61.2118C17.5759 59.9998 19.6971 59.0906 21.97 58.636C22.5761 58.4845 23.0307 58.0299 23.182 57.2725L23.7881 53.0301H26.3638L26.9699 57.2725C27.1215 57.8786 27.5761 58.4845 28.182 58.636C30.4547 59.0906 32.5758 59.9996 34.3942 61.2118C35.0003 61.5148 35.6062 61.5148 36.2123 61.2118L39.6972 58.636L41.5153 60.4541L38.9396 63.9391C38.485 64.3936 38.485 65.1513 38.9396 65.7572C40.1516 67.5753 41.0607 69.6965 41.5153 71.9694C41.6668 72.5755 42.1214 73.0301 42.8788 73.1816L47.1212 73.7877V76.2121Z" fill="url(#paint0_linear_9_208)"/>
<path d="M25.1514 62.2729C18.1818 62.2729 12.4242 68.0306 12.4242 75.0002C12.4242 81.9698 18.0303 87.5759 24.9999 87.5759C31.9695 87.5759 37.5756 81.9698 37.5756 75.0002C37.5756 68.0304 32.1213 62.2729 25.1514 62.2729ZM25.1514 84.5456C19.8484 84.5456 15.6061 80.3032 15.6061 75.0002C15.6061 69.6972 19.8484 65.4548 25.1514 65.4548C30.4545 65.4548 34.6968 69.6972 34.6968 75.0002C34.697 80.3032 30.4545 84.5456 25.1514 84.5456Z" fill="url(#paint1_linear_9_208)"/>
<path d="M98.9393 27.5759L92.5756 26.6667C91.9695 23.9394 90.909 21.3637 89.3938 19.091L93.1817 14.091C93.6363 13.4849 93.6363 12.5759 93.0302 11.9698L88.1817 7.12135C87.5756 6.51525 86.8182 6.51525 86.2121 6.96983L81.0606 10.9091C78.7879 9.39405 76.2121 8.33337 73.4849 7.72726L72.5757 1.36354C72.4242 0.605906 71.8181 0 71.0606 0H64.091C63.3334 0 62.7275 0.606107 62.5759 1.36354L61.6668 7.72726C58.9395 8.33337 56.3637 9.39385 54.091 10.9091L48.9395 6.96983C48.3334 6.51525 47.4245 6.51525 46.9699 7.12135L42.273 11.9698C41.6669 12.5759 41.6669 13.3333 42.1214 13.9395L46.0607 19.091C44.5457 21.5152 43.485 23.9394 42.8789 26.6667L36.5152 27.5759C35.7575 27.7274 35.1516 28.3335 35.1516 29.0909V36.0605C35.1516 36.8182 35.7577 37.4241 36.5152 37.5756L42.8789 38.4848C43.485 41.2121 44.5455 43.7878 46.0607 46.0605L42.1212 51.2122C41.6667 51.8183 41.6667 52.7273 42.2728 53.1819L47.2727 58.1818C47.8789 58.7879 48.6363 58.7879 49.2424 58.3334L54.3939 54.3941C56.6666 55.9091 59.2424 56.9698 61.9696 57.5759L62.8788 63.9397C63.0303 64.6973 63.6364 65.3032 64.3939 65.3032H71.3635C72.1211 65.3032 72.727 64.6971 72.8786 63.9397L73.7877 57.5759C76.515 56.9698 79.0907 55.9093 81.3634 54.3941L86.3634 58.1818C86.6665 58.3334 86.9695 58.4849 87.4241 58.4849C87.8787 58.4849 88.3333 58.3334 88.6363 58.0303L93.4848 53.1819C94.0909 52.5758 94.0909 51.8183 93.6363 51.2122L89.697 46.0607C91.2121 43.6365 92.2728 41.2123 92.8789 38.485L99.2424 37.5758C100 37.4243 100.606 36.8182 100.606 36.0607V29.0911C100.303 28.182 99.6968 27.5759 98.9393 27.5759ZM91.2121 35.4546C90.606 35.6062 89.9999 36.0607 89.9999 36.6669C89.3938 39.6972 88.1817 42.576 86.5149 45.1517C86.2119 45.7579 86.2119 46.364 86.5149 46.9699L90.3029 51.9699L87.2726 55.0002L82.1211 51.2122C81.6665 50.7576 80.9089 50.7576 80.303 51.2122C77.7272 52.8788 74.8484 54.091 71.8181 54.6971C71.212 54.8487 70.7574 55.3032 70.6059 56.0607L69.9997 62.1213H65.6059L64.8482 55.9091C64.6967 55.303 64.2421 54.6969 63.636 54.5456C60.6057 53.9395 57.7269 52.7275 55.1511 51.0607C54.545 50.7576 53.9391 50.7576 53.333 51.0607L48.4846 54.8487L45.4542 51.8183L49.0907 46.9699C49.5452 46.5153 49.5452 45.6063 49.0907 45.0002C47.4241 42.4245 46.2119 39.6972 45.6058 36.6669C45.4542 36.0607 44.9996 35.6062 44.2422 35.4546L38.1815 34.697V30.3031L44.2422 29.5455C44.8483 29.394 45.4542 28.9394 45.6058 28.3333C46.2119 25.303 47.4239 22.4241 49.0907 19.8484C49.3937 19.2423 49.3937 18.6362 49.0907 18.0303L45.3027 13.0303L48.3332 10.0002L53.1817 13.7879C53.6363 14.2425 54.5452 14.2425 55.1513 13.7879C57.7271 12.1213 60.4544 10.9091 63.4847 10.303C64.0908 10.1515 64.5454 9.69691 64.6969 8.93947L65.6061 2.87881H69.9999L70.7576 9.091C70.9091 9.69711 71.3637 10.3032 71.9698 10.4545C75.0001 11.0606 77.8789 12.2727 80.4547 13.9395C81.0608 14.2425 81.6669 14.2425 82.2728 13.9395L87.1213 10.1517L90.1514 13.182L86.3636 18.0305C85.909 18.4851 85.909 19.2427 86.3636 19.8486C88.0302 22.4243 89.2424 25.3032 89.8485 28.3335C90.0001 28.9396 90.4547 29.3942 91.0606 29.5457L97.1212 30.3033V34.6972H97.2727L91.2121 35.4546Z" fill="url(#paint2_linear_9_208)"/>
<path d="M67.7272 16.2124C58.7878 16.2124 51.3636 23.4851 51.3636 32.5761C51.3636 41.6669 58.6362 48.9398 67.7272 48.9398C76.818 48.9398 84.0909 41.6671 84.0909 32.5761C84.0909 23.4851 76.818 16.2124 67.7272 16.2124ZM67.7272 45.9092C60.4546 45.9092 54.3939 40.0001 54.3939 32.5759C54.3939 25.1517 60.303 19.2425 67.7272 19.2425C74.9999 19.2425 81.0606 25.1517 81.0606 32.5759C81.0606 40.0001 75.1514 45.9092 67.7272 45.9092Z" fill="url(#paint3_linear_9_208)"/>
<path d="M12.4242 43.4848C13.1818 44.091 14.0908 44.091 14.5454 43.4848L22.7272 35.303C23.3333 34.6969 23.3333 33.7879 22.7272 33.1818C22.1211 32.5757 21.2122 32.5757 20.606 33.1818L15 38.7879V11.2123H32.1211C33.0302 11.2123 33.6361 10.6062 33.6361 9.69719C33.6361 8.78824 33.03 8.18213 32.1211 8.18213H13.4849C12.5757 8.18213 11.9698 8.78824 11.9698 9.69719V38.7881L6.51527 33.3336C5.90916 32.7274 5.0002 32.7274 4.39409 33.3336C3.78799 33.9397 3.78799 34.8486 4.39409 35.4547L12.4242 43.4848Z" fill="url(#paint4_linear_9_208)"/>
<path d="M84.5453 62.5762C84.2422 62.2731 83.7877 62.1216 83.3333 62.1216C82.8787 62.1216 82.5756 62.2731 82.4241 62.5762L74.2423 70.758C73.6362 71.3641 73.6362 72.2731 74.2423 72.8792C74.8484 73.4853 75.7573 73.4853 76.3634 72.8792L81.9695 67.2731V94.8487H53.0301C52.121 94.8487 51.5151 95.4548 51.5151 96.3638C51.5151 97.2728 52.1212 97.8789 53.0301 97.8789H83.4846C84.3938 97.8789 84.9997 97.2728 84.9997 96.3638V67.2731L90.4542 72.7276C91.0603 73.3338 91.9693 73.3338 92.5754 72.7276C93.1815 72.1215 93.1815 71.2126 92.5754 70.6065L84.5453 62.5762Z" fill="url(#paint5_linear_9_208)"/>
<defs>
<linearGradient id="paint0_linear_9_208" x1="4.81496" y1="46.8301" x2="41.1267" y2="99.9031" gradientUnits="userSpaceOnUse">
<stop stop-color="#00833D"/>
<stop offset="1" stop-color="#73BF45"/>
</linearGradient>
<linearGradient id="paint1_linear_9_208" x1="14.839" y1="60.6688" x2="33.2744" y2="87.3718" gradientUnits="userSpaceOnUse">
<stop stop-color="#00833D"/>
<stop offset="1" stop-color="#73BF45"/>
</linearGradient>
<linearGradient id="paint2_linear_9_208" x1="41.4358" y1="-4.14006" x2="88.8734" y2="65.1455" gradientUnits="userSpaceOnUse">
<stop stop-color="#00833D"/>
<stop offset="1" stop-color="#73BF45"/>
</linearGradient>
<linearGradient id="paint3_linear_9_208" x1="54.5057" y1="14.1376" x2="78.2993" y2="48.8094" gradientUnits="userSpaceOnUse">
<stop stop-color="#00833D"/>
<stop offset="1" stop-color="#73BF45"/>
</linearGradient>
<linearGradient id="paint4_linear_9_208" x1="6.79066" y1="5.91521" x2="34.1521" y2="39.0282" gradientUnits="userSpaceOnUse">
<stop stop-color="#00833D"/>
<stop offset="1" stop-color="#73BF45"/>
</linearGradient>
<linearGradient id="paint5_linear_9_208" x1="55.5009" y1="59.8547" x2="79.9093" y2="101.149" gradientUnits="userSpaceOnUse">
<stop stop-color="#00833D"/>
<stop offset="1" stop-color="#73BF45"/>
</linearGradient>
</defs>
</svg>
