<svg width="80" height="80" viewBox="0 0 80 80" fill="none" xmlns="http://www.w3.org/2000/svg">
<rect width="80" height="80" fill="#0072B1"/>
<path d="M54.9992 54.9993V44.0121C54.9992 38.6122 53.8368 34.4873 47.5369 34.4873C44.4995 34.4873 42.4745 36.1373 41.6495 37.7122H41.5745V34.9748H35.6122V54.9993H41.837V45.0621C41.837 42.4371 42.3245 39.9247 45.5495 39.9247C48.7369 39.9247 48.7744 42.8871 48.7744 45.2121V54.9618H54.9992V54.9993Z" fill="white"/>
<path d="M25.4875 34.9746H31.7124V54.9991H25.4875V34.9746Z" fill="white"/>
<path d="M28.5999 25C26.6125 25 25 26.6125 25 28.5999C25 30.5874 26.6125 32.2373 28.5999 32.2373C30.5874 32.2373 32.1998 30.5874 32.1998 28.5999C32.1998 26.6125 30.5874 25 28.5999 25Z" fill="white"/>
</svg>
